<?xml version="1.0" standalone="no"?>
<!DOCTYPE svg PUBLIC "-//W3C//DTD SVG 20010904//EN"
 "http://www.w3.org/TR/2001/REC-SVG-20010904/DTD/svg10.dtd">
<svg version="1.0" xmlns="http://www.w3.org/2000/svg"
 width="1231.000000pt" height="1231.000000pt" viewBox="0 0 1231.000000 1231.000000"
 preserveAspectRatio="xMidYMid meet">

<g transform="translate(0.000000,1231.000000) scale(0.100000,-0.100000)"
fill="#000000" stroke="none">
<path d="M6090 10953 c-372 -26 -763 -127 -1076 -277 -977 -468 -1613 -1389
-1703 -2466 -12 -145 -5 -450 14 -600 44 -347 129 -627 290 -955 232 -473 584
-870 1041 -1172 376 -248 809 -406 1274 -465 138 -17 572 -17 710 0 786 99
1480 485 1973 1097 178 221 376 568 472 829 138 374 206 847 176 1231 -58 744
-342 1375 -854 1894 -437 443 -965 724 -1580 841 -158 29 -161 28 -61 -38 106
-70 174 -126 312 -256 125 -119 217 -168 323 -174 58 -4 68 -1 96 22 27 23 44
63 56 131 5 35 34 -32 52 -124 22 -107 14 -192 -25 -266 -16 -30 -25 -57 -21
-59 14 -9 136 -25 276 -36 159 -13 252 -26 292 -41 l27 -10 -41 -38 c-68 -62
-69 -118 -4 -217 55 -86 173 -192 390 -353 131 -97 255 -259 302 -395 26 -74
29 -93 28 -211 -2 -221 35 -302 162 -358 68 -30 94 -56 127 -127 20 -44 26
-74 30 -155 2 -55 0 -116 -5 -135 l-9 -35 -18 52 c-18 55 -56 103 -80 103 -49
0 -45 -108 10 -256 53 -145 95 -277 89 -282 -6 -6 -5 -7 -39 51 -20 35 -39 54
-69 68 -43 19 -127 26 -127 10 0 -5 21 -53 48 -107 l47 -99 0 -145 c-1 -124
-5 -161 -28 -255 -33 -133 -85 -293 -98 -301 -12 -7 -77 33 -89 56 -21 39 -31
116 -21 159 9 41 9 42 -10 26 -54 -50 -70 -222 -35 -378 10 -43 16 -81 13 -83
-7 -7 -100 30 -151 60 -83 48 -174 179 -192 274 -3 17 -10 32 -14 32 -13 0
-19 -41 -40 -272 -26 -293 -37 -379 -56 -425 -26 -63 -178 -282 -188 -272 -3
2 -11 42 -20 88 -15 80 -22 100 -29 90 -2 -2 -27 -38 -55 -79 -73 -105 -121
-160 -122 -137 0 10 -16 57 -36 105 -33 78 -36 97 -37 180 0 50 -2 92 -3 92
-1 0 -24 -35 -49 -77 -51 -83 -145 -212 -171 -234 -8 -7 -37 -14 -64 -16 -54
-3 -209 -56 -242 -83 -22 -17 -22 -17 18 -24 126 -22 177 -60 155 -114 -15
-36 -96 -117 -226 -224 -54 -46 -109 -98 -122 -116 -33 -50 -62 -132 -98 -276
-30 -124 -33 -130 -61 -139 -16 -5 -135 -10 -264 -10 -199 -1 -253 3 -350 21
-161 29 -311 80 -475 161 -146 72 -391 227 -437 277 -55 59 -55 108 1 243 17
41 30 76 28 78 -2 1 -30 -18 -63 -43 -148 -115 -354 -184 -655 -220 l-130 -15
-58 31 c-32 17 -65 43 -72 57 -35 66 -2 190 74 281 37 44 67 122 67 174 0 65
-62 158 -106 158 -30 0 -37 -20 -43 -135 l-6 -100 -41 60 c-78 113 -112 206
-98 268 3 16 37 65 74 108 57 66 70 88 79 132 14 74 20 137 13 137 -3 0 -35
-12 -71 -27 -96 -39 -203 -38 -285 2 -71 36 -141 111 -192 208 -36 69 -37 71
-31 156 3 47 17 122 30 165 l24 80 -63 58 c-35 33 -69 75 -78 98 -8 21 -25
126 -37 232 l-22 193 -47 53 c-89 100 -119 200 -86 287 25 64 129 157 314 278
145 96 282 198 518 385 50 40 95 72 101 72 11 0 73 63 73 74 0 19 -37 35 -78
36 -56 0 -108 -22 -156 -68 l-38 -37 7 45 c30 206 128 345 303 433 48 24 120
52 160 61 39 10 69 22 66 27 -8 14 -141 10 -215 -5 -81 -18 -185 -58 -259
-102 -30 -18 -56 -31 -58 -29 -2 1 6 18 16 36 11 19 29 64 41 100 39 119 174
253 335 330 106 51 178 57 260 24 16 -7 17 -5 11 16 -10 36 -59 77 -101 85
-23 4 -57 1 -92 -9 -31 -9 -58 -14 -60 -12 -6 6 68 117 114 172 51 60 157 133
229 158 68 24 221 30 313 12 83 -16 93 -7 41 37 -25 21 -41 26 -85 26 -30 0
-54 4 -54 9 0 22 53 70 97 89 101 43 236 37 419 -17 l94 -28 0 32 c0 93 -76
172 -198 204 -23 7 -40 16 -37 21 10 17 136 50 189 50 70 0 116 -14 177 -55
37 -25 49 -30 44 -18 -47 122 17 214 178 258 l52 14 -95 -1 c-52 -1 -115 -3
-140 -5z"/>
<path d="M6404 10171 c-38 -11 -99 -31 -135 -46 -61 -26 -189 -93 -189 -100 0
-2 46 12 103 30 219 71 388 85 484 41 28 -14 59 -36 68 -50 10 -15 33 -109 52
-214 29 -154 35 -212 36 -327 1 -162 -13 -230 -74 -372 -43 -103 -42 -127 9
-139 56 -14 101 -45 137 -95 90 -125 125 -217 140 -370 13 -129 -31 -390 -95
-572 -60 -171 -234 -548 -308 -669 -22 -38 -35 -68 -29 -68 30 0 161 42 232
75 92 41 198 111 241 157 72 76 229 421 289 632 9 32 14 61 11 64 -3 3 -1 11
5 18 6 7 11 33 12 57 1 25 5 43 9 41 8 -5 21 92 14 105 -4 5 -2 12 4 16 5 3
10 16 9 28 0 21 -1 21 -9 2 -5 -14 -7 -8 -6 22 0 24 5 43 9 43 5 0 5 5 1 11
-4 7 -8 26 -10 43 -1 18 -10 52 -19 76 -9 25 -17 52 -19 60 -3 19 -10 36 -51
136 -87 207 -107 316 -67 357 22 21 22 21 56 3 19 -10 45 -29 57 -42 27 -28
39 -30 40 -6 0 10 3 12 6 5 11 -29 21 -10 12 22 -6 19 -7 40 -4 45 4 6 -1 7
-10 3 -15 -5 -15 -3 -5 14 15 24 5 77 -12 67 -6 -4 -8 -3 -5 2 22 36 -61 196
-149 290 -25 27 -52 67 -60 89 -27 74 -80 111 -184 128 l-71 12 -33 80 c-43
106 -76 161 -128 214 -89 91 -220 121 -364 82z"/>
<path d="M6439 9972 c-110 -37 -409 -212 -409 -241 0 -4 28 -9 63 -10 77 -2
168 -23 238 -54 149 -66 270 -226 294 -390 7 -42 9 -46 20 -30 19 28 53 143
65 220 11 68 8 208 -5 308 -9 66 -41 149 -69 182 -30 35 -116 41 -197 15z"/>
<path d="M5135 9540 c-3 -5 -95 -90 -203 -187 -229 -206 -296 -272 -288 -280
18 -18 460 390 497 458 10 19 5 27 -6 9z"/>
<path d="M7413 9092 c-8 -5 -7 -11 2 -19 10 -10 14 -9 19 2 6 17 -5 26 -21 17z"/>
<path d="M5205 9028 c-43 -37 -177 -193 -194 -225 -14 -28 -13 -28 74 -3 38
11 95 20 125 20 43 0 64 6 92 25 24 17 51 25 77 25 28 0 48 7 62 21 22 22 22
53 -1 55 -8 1 -20 2 -26 3 -6 0 -42 26 -79 56 -36 30 -73 55 -80 55 -8 0 -31
-14 -50 -32z"/>
<path d="M3684 8160 c15 -101 29 -132 86 -194 31 -34 65 -76 76 -94 16 -28 20
-30 26 -15 3 10 7 33 7 51 2 59 25 88 88 112 32 11 70 25 85 31 36 15 111 96
104 114 -3 8 0 16 7 18 7 2 9 7 5 11 -9 10 -46 -11 -83 -46 -36 -35 -69 -50
-91 -41 -10 3 -41 21 -71 39 -64 39 -107 48 -164 35 -36 -8 -47 -7 -63 7 -18
16 -18 16 -12 -28z"/>
<path d="M4855 8069 c-148 -109 -159 -133 -111 -232 42 -86 41 -149 -4 -217
-30 -44 -116 -120 -176 -156 -17 -10 -17 -12 4 -39 30 -38 28 -71 -7 -106 -33
-33 -49 -34 -146 -14 -112 24 -160 43 -242 99 -43 29 -100 65 -126 80 -26 15
-63 41 -82 58 l-35 30 0 -36 c0 -20 6 -52 14 -71 14 -32 17 -33 45 -25 17 4
35 11 41 15 5 3 44 -18 84 -48 76 -56 127 -79 301 -143 55 -20 141 -55 191
-79 112 -52 178 -69 274 -69 99 -1 159 27 196 90 15 25 25 46 23 48 -2 1 -19
13 -37 25 -53 37 -58 57 -24 90 17 15 49 33 71 41 23 7 37 16 31 20 -6 4 -7
17 0 39 9 33 4 65 -10 56 -4 -3 -7 3 -6 13 0 9 -5 16 -12 14 -8 -1 -11 2 -8 7
3 5 -11 21 -32 36 -57 43 -122 107 -138 137 -20 39 -17 82 10 162 26 75 47
256 30 256 -6 0 -59 -36 -119 -81z"/>
<path d="M5830 7150 c-25 -10 -94 -45 -155 -79 -156 -87 -181 -94 -365 -96
-133 -1 -163 -4 -210 -23 -116 -46 -205 -142 -250 -269 -13 -36 -47 -100 -76
-143 -32 -46 -50 -81 -44 -85 6 -4 104 38 218 93 114 55 236 112 272 127 116
49 263 125 330 173 69 49 252 221 302 285 16 20 28 37 26 36 -1 -1 -23 -9 -48
-19z"/>
<path d="M4265 4461 c-85 -38 -165 -158 -258 -386 -65 -159 -115 -307 -233
-695 -98 -321 -176 -544 -210 -597 -11 -18 -24 -23 -54 -23 -55 0 -141 -34
-175 -70 -60 -63 -21 -150 66 -150 53 0 85 18 144 81 l49 53 81 -17 c44 -9
164 -44 267 -77 267 -85 363 -103 518 -97 130 4 195 20 214 49 8 13 7 21 -4
33 -14 13 -24 13 -90 -1 -136 -29 -252 -9 -588 100 -108 35 -229 71 -269 81
l-72 17 40 64 c129 212 246 510 405 1039 46 154 98 316 116 360 60 154 114
215 146 166 30 -45 82 -9 62 43 -18 48 -83 60 -155 27z m-787 -1810 c-6 -10
-23 -26 -38 -35 -23 -13 -30 -13 -46 -1 -18 13 -16 15 26 34 59 27 74 27 58 2z"/>
<path d="M8958 4415 c-84 -31 -187 -122 -284 -250 -163 -216 -367 -631 -525
-1067 -28 -79 -56 -150 -60 -158 -15 -24 12 337 37 510 29 194 29 195 4 213
-30 21 -60 10 -76 -29 -31 -74 -71 -494 -81 -855 l-6 -237 26 -16 c43 -29 87
8 87 73 0 43 61 275 110 416 177 510 452 1031 655 1239 120 123 217 140 266
46 19 -37 14 -170 -11 -283 -11 -53 -53 -204 -91 -335 -139 -470 -185 -700
-176 -891 7 -182 52 -278 157 -335 68 -37 187 -49 210 -21 22 27 1 46 -73 65
-126 31 -169 89 -175 236 -7 153 21 291 162 802 100 359 132 553 115 681 -23
164 -136 246 -271 196z"/>
<path d="M5457 4363 c-13 -14 -46 -20 -140 -28 l-122 -10 0 -30 0 -30 108 3
c122 3 118 7 92 -88 -55 -206 -127 -926 -141 -1405 -3 -115 -7 -215 -9 -221
-2 -6 -44 -14 -99 -18 -114 -8 -146 -18 -146 -46 0 -28 31 -38 93 -29 29 4
142 11 252 14 246 7 262 10 271 37 11 37 -14 45 -140 40 l-116 -3 0 134 c0
384 55 927 141 1397 39 215 33 200 80 200 50 0 79 15 79 40 0 26 -26 39 -71
33 -27 -4 -43 -1 -54 11 -21 21 -56 20 -78 -1z"/>
<path d="M6709 4225 c-70 -26 -119 -56 -179 -112 -304 -281 -369 -795 -149
-1181 26 -45 31 -64 33 -135 4 -132 61 -221 158 -248 91 -24 184 10 284 103
187 175 330 478 375 796 15 109 6 347 -16 427 -43 153 -135 279 -247 335 -54
26 -71 30 -142 29 -45 0 -97 -6 -117 -14z m165 -77 c53 -16 125 -87 158 -158
124 -262 85 -664 -101 -1045 -133 -272 -303 -402 -399 -305 -45 44 -67 155
-36 181 12 10 14 23 9 58 -10 76 47 216 141 346 30 42 54 85 54 96 0 27 -25
34 -54 16 -32 -22 -108 -137 -155 -238 l-39 -83 -12 45 c-39 144 -44 187 -44
369 0 202 9 258 64 396 67 168 178 287 300 325 38 11 68 10 114 -3z"/>
<path d="M3404 1959 c-72 -9 -118 -34 -169 -91 -60 -67 -79 -131 -73 -252 3
-67 10 -102 26 -132 55 -107 132 -154 250 -154 108 0 148 15 212 80 68 67 90
126 90 241 0 210 -134 334 -336 308z m146 -99 c70 -36 100 -101 100 -220 0
-148 -72 -230 -202 -230 -68 0 -103 15 -145 64 -40 45 -57 97 -57 171 0 33 6
77 13 98 16 48 66 106 106 123 46 20 139 17 185 -6z"/>
<path d="M5995 1959 c-205 -27 -315 -246 -233 -466 24 -66 97 -135 162 -153
55 -15 209 -9 249 10 22 11 27 20 27 52 0 43 -3 44 -56 22 -27 -11 -60 -15
-114 -12 -101 4 -150 35 -187 115 -22 47 -25 65 -21 128 6 89 35 147 96 189
37 26 55 31 116 34 50 3 83 -1 110 -12 53 -22 56 -21 56 25 0 36 -3 41 -32 53
-43 18 -111 24 -173 15z"/>
<path d="M6770 1959 c-73 -8 -128 -37 -183 -99 -56 -62 -79 -126 -79 -224 -1
-135 55 -235 156 -282 64 -30 201 -34 266 -8 37 15 40 19 40 55 0 44 -3 45
-53 24 -45 -19 -157 -20 -200 -2 -55 23 -104 87 -117 154 -25 118 20 233 111
280 51 28 150 31 206 8 51 -21 53 -20 53 29 0 43 -1 44 -42 54 -61 16 -96 18
-158 11z"/>
<path d="M7997 1959 c-102 -11 -199 -93 -229 -192 -7 -23 -13 -82 -13 -132 1
-113 26 -176 95 -238 58 -52 103 -67 202 -67 60 0 84 5 126 26 108 54 157 148
156 299 0 111 -25 175 -90 235 -68 62 -135 81 -247 69z m130 -90 c81 -30 128
-123 121 -242 -4 -85 -28 -137 -82 -181 -35 -29 -43 -31 -121 -31 -78 0 -86 2
-121 31 -61 49 -79 94 -79 200 0 83 2 94 30 140 40 65 92 94 167 94 31 0 69
-5 85 -11z"/>
<path d="M10395 1959 c-118 -15 -187 -96 -165 -194 13 -57 35 -82 118 -129
137 -79 151 -89 163 -118 16 -38 -3 -82 -42 -98 -39 -16 -155 -9 -198 13 -42
21 -53 12 -49 -39 3 -35 7 -40 38 -51 19 -7 73 -12 120 -12 70 -1 94 3 130 22
58 29 90 76 90 134 0 87 -32 125 -165 197 -130 71 -156 118 -94 170 26 22 40
26 95 26 36 0 81 -7 101 -15 19 -8 37 -15 39 -15 2 0 4 20 4 44 0 32 -5 46
-17 51 -31 14 -116 20 -168 14z"/>
<path d="M1720 1651 l0 -311 40 0 39 0 3 108 3 107 80 6 c109 7 158 36 199
116 24 48 21 139 -7 187 -36 65 -91 87 -236 93 l-121 6 0 -312z m250 200 c55
-39 57 -132 4 -182 -21 -20 -38 -24 -100 -27 l-74 -4 0 114 c0 63 3 118 8 122
13 13 136 -4 162 -23z"/>
<path d="M2448 1955 c-5 -5 -8 -145 -8 -312 l0 -303 40 0 39 0 3 128 3 127 45
-2 c24 -1 56 -11 70 -21 14 -10 54 -66 89 -125 l64 -107 49 0 c50 0 50 0 36
23 -8 12 -42 67 -76 123 -34 56 -71 109 -82 119 -20 18 -20 19 17 39 109 61
109 225 1 286 -33 18 -60 23 -161 27 -67 3 -125 2 -129 -2z m252 -104 c19 -14
26 -29 28 -65 3 -40 -1 -50 -27 -76 -27 -28 -34 -30 -105 -30 l-76 0 0 93 c0
52 3 97 8 101 13 14 146 -3 172 -23z"/>
<path d="M4099 1952 c-2 -7 -3 -147 -1 -312 l3 -300 124 0 c148 0 210 18 275
81 65 63 90 127 90 230 0 106 -19 165 -70 217 -58 60 -125 81 -284 89 -96 4
-134 3 -137 -5z m291 -98 c79 -33 114 -96 114 -204 1 -92 -26 -148 -92 -195
-40 -27 -52 -30 -138 -33 l-94 -4 0 232 0 232 88 -7 c48 -4 103 -13 122 -21z"/>
<path d="M4934 1945 c-4 -9 -5 -114 -2 -234 l4 -219 29 -58 c41 -79 88 -104
196 -104 43 0 90 5 106 11 38 14 80 56 106 104 20 37 22 57 25 278 l4 238 -44
-3 -43 -3 -5 -235 c-5 -255 -9 -273 -66 -298 -40 -19 -125 -15 -161 8 -55 33
-58 45 -63 295 l-5 230 -38 3 c-27 2 -39 -1 -43 -13z"/>
<path d="M7330 1650 l0 -310 40 0 40 0 0 310 0 310 -40 0 -40 0 0 -310z"/>
<path d="M8690 1650 l0 -310 40 0 40 0 2 243 3 242 72 -110 c39 -60 110 -170
158 -242 l87 -133 49 0 49 0 0 310 0 310 -40 0 -40 0 0 -247 c0 -209 -2 -245
-14 -233 -7 8 -80 120 -161 248 l-147 232 -49 0 -49 0 0 -310z"/>
<path d="M9575 1938 c-3 -13 -4 -151 -3 -308 l3 -285 168 -3 167 -2 0 40 0 40
-125 0 -126 0 3 93 3 92 108 3 107 3 0 39 0 40 -110 0 -111 0 3 93 3 92 118 3
117 3 0 39 0 40 -160 0 c-157 0 -160 0 -165 -22z"/>
<path d="M5685 1087 c-20 -17 -28 -35 -32 -70 -5 -37 -9 -47 -24 -47 -11 0
-19 -7 -19 -15 0 -8 9 -15 20 -15 18 0 20 -8 22 -117 3 -110 4 -118 23 -118
19 0 20 8 23 118 l3 117 29 0 c20 0 30 5 30 15 0 10 -10 15 -30 15 -28 0 -30
2 -30 38 0 43 14 62 47 62 16 0 23 6 23 20 0 28 -51 27 -85 -3z"/>
<path d="M6114 1070 c-47 -70 -3 -59 48 13 19 27 19 27 -1 27 -13 0 -31 -15
-47 -40z"/>
<path d="M8724 1085 c-8 -21 2 -45 19 -45 8 0 20 7 27 15 10 12 10 18 0 30 -7
8 -19 15 -27 15 -7 0 -16 -7 -19 -15z"/>
<path d="M9350 1025 c0 -75 -7 -88 -30 -60 -8 9 -30 15 -57 15 -62 0 -108 -45
-119 -115 -19 -131 83 -214 179 -145 l27 21 0 -21 c0 -15 5 -20 18 -18 15 3
17 22 20 201 2 192 2 197 -18 197 -18 0 -20 -6 -20 -75z m-28 -105 c28 -29 30
-35 26 -87 -4 -46 -10 -61 -32 -80 -35 -30 -71 -29 -101 2 -21 20 -25 34 -25
80 0 49 4 60 29 86 38 37 65 37 103 -1z"/>
<path d="M1712 893 c3 -180 4 -188 23 -188 18 0 20 8 23 83 l3 82 64 0 c58 0
65 2 65 20 0 18 -7 20 -65 20 l-65 0 0 65 0 64 72 3 c60 2 73 6 76 21 3 15 -7
17 -97 17 l-101 0 2 -187z"/>
<path d="M8060 1078 c0 -2 31 -86 68 -188 63 -170 70 -185 93 -185 22 0 29 15
91 180 38 99 68 183 68 188 0 4 -10 7 -22 7 -21 0 -29 -17 -79 -162 l-56 -162
-32 90 c-88 248 -82 234 -107 234 -13 0 -24 -1 -24 -2z"/>
<path d="M2913 1043 c-7 -2 -13 -20 -13 -39 0 -30 -3 -34 -25 -34 -16 0 -25
-6 -25 -15 0 -9 9 -15 25 -15 l25 0 0 -100 c0 -94 2 -103 25 -125 25 -25 41
-30 69 -19 23 9 21 43 -3 37 -38 -10 -52 22 -49 116 l3 86 33 3 c19 2 32 9 32
17 0 8 -13 15 -32 17 -30 3 -33 6 -36 41 -3 37 -6 40 -29 30z"/>
<path d="M2294 947 c-82 -75 -45 -231 59 -251 51 -10 107 13 135 54 21 30 23
44 20 104 -3 62 -7 71 -36 97 -27 25 -41 29 -87 29 -48 0 -60 -4 -91 -33z
m154 -33 c17 -19 22 -37 22 -75 0 -42 -5 -55 -29 -80 -16 -16 -39 -29 -51 -29
-39 0 -78 28 -90 65 -37 111 75 201 148 119z"/>
<path d="M3411 967 c-112 -57 -85 -251 38 -272 100 -17 172 72 151 187 -12 62
-55 98 -118 98 -26 0 -58 -6 -71 -13z m127 -53 c17 -19 22 -37 22 -75 0 -42
-5 -55 -29 -80 -31 -31 -55 -36 -94 -18 -34 15 -52 54 -51 106 2 91 93 132
152 67z"/>
<path d="M4006 955 c-34 -31 -46 -64 -46 -127 0 -61 22 -102 68 -124 39 -18
80 -12 111 17 l21 20 0 -41 c0 -62 -35 -93 -98 -88 -26 3 -55 8 -64 12 -26 12
-24 -30 1 -44 28 -14 96 -12 136 4 58 25 69 60 73 234 l4 152 -26 0 c-14 0
-26 -5 -26 -11 0 -5 -10 -3 -22 5 -35 25 -100 20 -132 -9z m137 -37 c25 -30
24 -131 -3 -158 -72 -72 -164 11 -131 120 20 67 92 88 134 38z"/>
<path d="M4650 960 c-16 -16 -20 -17 -20 -5 0 9 -9 15 -25 15 l-26 0 3 -132
c3 -125 4 -133 23 -133 18 0 20 8 25 103 5 95 7 105 29 124 14 10 33 17 43 15
13 -4 18 0 18 14 0 26 -44 25 -70 -1z"/>
<path d="M5093 970 c-13 -5 -23 -17 -23 -26 0 -12 6 -15 26 -10 82 21 105 15
119 -31 7 -24 5 -25 -76 -38 -55 -8 -89 -39 -89 -80 0 -47 8 -64 42 -81 33
-17 79 -11 99 12 15 19 29 18 29 -2 0 -9 7 -14 18 -12 15 3 17 17 17 122 0
112 -1 119 -24 137 -25 21 -98 25 -138 9z m127 -150 c0 -77 -109 -124 -126
-54 -9 34 19 62 65 67 20 2 42 4 49 5 6 1 12 -7 12 -18z"/>
<path d="M6553 970 c-13 -5 -23 -18 -23 -28 0 -18 2 -19 45 -4 41 13 47 13 70
-2 14 -9 25 -25 25 -36 0 -20 -9 -24 -75 -35 -57 -10 -85 -39 -85 -90 0 -70
62 -104 123 -67 30 17 35 18 44 4 5 -9 16 -13 26 -9 14 5 17 21 17 100 0 102
-12 152 -40 167 -23 12 -97 12 -127 0z m117 -164 c0 -58 -68 -97 -104 -60 -32
32 -15 72 35 84 64 15 69 13 69 -24z"/>
<path d="M9793 946 c-34 -31 -37 -39 -41 -97 -3 -55 0 -69 20 -99 34 -50 89
-68 149 -49 28 9 45 21 47 33 4 16 0 18 -25 10 -44 -13 -102 -10 -118 7 -8 8
-19 29 -24 47 l-10 32 94 0 c52 0 96 3 99 8 11 19 -14 98 -39 119 -42 37 -106
32 -152 -11z m121 -17 c14 -11 26 -29 26 -40 0 -17 -8 -19 -70 -19 -43 0 -70
4 -70 11 0 21 22 50 43 59 33 13 42 12 71 -11z"/>
<path d="M10374 947 c-31 -28 -37 -42 -41 -84 -10 -94 29 -154 107 -167 86
-14 150 47 150 141 0 98 -40 143 -127 143 -46 0 -58 -4 -89 -33z m150 -27 c13
-12 21 -37 24 -74 4 -51 2 -57 -26 -86 -17 -16 -40 -30 -52 -30 -110 0 -135
173 -30 213 23 9 63 -2 84 -23z"/>
<path d="M6102 838 c3 -117 5 -133 21 -136 15 -3 17 8 17 132 0 130 -1 136
-20 136 -20 0 -20 -5 -18 -132z"/>
<path d="M7360 964 c0 -3 23 -63 50 -133 49 -124 50 -129 36 -163 -17 -39 -32
-54 -61 -60 -11 -2 -21 -11 -23 -21 -5 -27 53 -23 82 6 18 18 156 345 156 370
0 4 -9 7 -19 7 -20 0 -25 -10 -76 -157 -11 -29 -22 -53 -25 -53 -3 0 -21 47
-40 105 -30 93 -37 105 -57 105 -13 0 -23 -3 -23 -6z"/>
<path d="M8730 834 c0 -124 2 -135 18 -132 15 3 17 19 20 136 2 127 2 132 -18
132 -19 0 -20 -6 -20 -136z"/>
</g>
</svg>
